<svg xmlns="http://www.w3.org/2000/svg" width="1596.278" height="633.113" viewBox="0 0 1596.278 633.113">
  <g id="c" transform="translate(0.003 0.028)">
    <g id="Group_1057" data-name="Group 1057" transform="translate(332.278 609.573)">
      <path id="Path_1974" data-name="Path 1974" d="M254.39,494.8l5.956-22.884h3.788l5.93,22.884h-2.847l-1.5-6.087h-6.923l-1.5,6.087H254.4Zm4.95-8.464h5.773l-1.75-7.053c-.34-1.332-.6-2.456-.784-3.357s-.3-1.489-.34-1.75c-.039.274-.157.862-.34,1.75s-.444,2.012-.784,3.318l-1.75,7.08Z" transform="translate(-254.39 -471.606)" fill="#fff"/>
      <path id="Path_1975" data-name="Path 1975" d="M288.333,495.118a6.406,6.406,0,0,1-4.885-1.776,6.684,6.684,0,0,1-1.7-4.807V471.92h2.821v16.615a4.488,4.488,0,0,0,.927,2.978,4.193,4.193,0,0,0,5.656,0,4.424,4.424,0,0,0,.94-2.978V471.92h2.821v16.615a6.751,6.751,0,0,1-1.672,4.833A6.466,6.466,0,0,1,288.333,495.118Z" transform="translate(-246.013 -471.606)" fill="#fff"/>
      <path id="Path_1976" data-name="Path 1976" d="M313.58,494.813v-20.35h-6.27V471.89h15.361v2.573H316.4v20.35Z" transform="translate(-238.187 -471.616)" fill="#fff"/>
      <path id="Path_1977" data-name="Path 1977" d="M341.145,495.191a7.511,7.511,0,0,1-3.553-.784,5.405,5.405,0,0,1-2.286-2.273,7.324,7.324,0,0,1-.8-3.527V478.263a7.27,7.27,0,0,1,.8-3.54,5.448,5.448,0,0,1,2.286-2.26,8.446,8.446,0,0,1,7.106,0,5.448,5.448,0,0,1,2.286,2.26,7.233,7.233,0,0,1,.8,3.513v10.371a7.323,7.323,0,0,1-.8,3.527,5.405,5.405,0,0,1-2.286,2.273A7.548,7.548,0,0,1,341.145,495.191Zm0-2.534a3.726,3.726,0,0,0,2.834-1.045,4.215,4.215,0,0,0,.993-2.991V478.276a4.157,4.157,0,0,0-.993-2.991,4.349,4.349,0,0,0-5.656,0,4.182,4.182,0,0,0-1.006,2.991v10.345a4.1,4.1,0,0,0,1.006,2.991A3.686,3.686,0,0,0,341.145,492.657Z" transform="translate(-229.86 -471.68)" fill="#fff"/>
      <path id="Path_1978" data-name="Path 1978" d="M360.613,494.807V471.923h3.7l2.377,7.393c.235.666.444,1.332.627,1.985s.327,1.162.405,1.515c.1-.353.235-.862.4-1.515s.353-1.332.562-2.025l2.26-7.367h3.7v22.884h-2.756v-8.307c0-.914.026-1.959.091-3.135s.144-2.364.248-3.592.209-2.39.327-3.513.209-2.09.3-2.926l-3.7,11.442h-2.978l-3.736-11.442c.1.81.209,1.763.313,2.834s.2,2.22.287,3.422.157,2.4.222,3.592.091,2.3.091,3.318v8.307H360.6Z" transform="translate(-221.871 -471.61)" fill="#fff"/>
      <path id="Path_1979" data-name="Path 1979" d="M386.39,494.8l5.956-22.884h3.788l5.93,22.884h-2.847l-1.5-6.087h-6.923l-1.5,6.087H386.4Zm4.95-8.464h5.773l-1.75-7.053c-.34-1.332-.6-2.456-.784-3.357s-.3-1.489-.34-1.75c-.039.274-.157.862-.34,1.75s-.444,2.012-.784,3.318l-1.75,7.08Z" transform="translate(-213.975 -471.606)" fill="#fff"/>
      <path id="Path_1980" data-name="Path 1980" d="M419.18,494.813v-20.35h-6.27V471.89h15.361v2.573H422v20.35H419.18Z" transform="translate(-205.855 -471.616)" fill="#fff"/>
      <path id="Path_1981" data-name="Path 1981" d="M440.39,494.8V471.92h13.166v2.573H443.185v7.08h9.274v2.534h-9.274v8.124h10.371V494.8Z" transform="translate(-197.442 -471.606)" fill="#fff"/>
      <path id="Path_1982" data-name="Path 1982" d="M466.6,494.8V471.92h5.93a8.169,8.169,0,0,1,3.84.849,6.2,6.2,0,0,1,2.508,2.377,7.026,7.026,0,0,1,.888,3.631v9.117a7.327,7.327,0,0,1-.888,3.657,6.26,6.26,0,0,1-2.508,2.4,8.169,8.169,0,0,1-3.84.849Zm2.821-2.508h3.109a4.41,4.41,0,0,0,3.239-1.163,4.332,4.332,0,0,0,1.176-3.226V478.79a4.29,4.29,0,0,0-1.176-3.2,4.43,4.43,0,0,0-3.239-1.163h-3.109V492.3Z" transform="translate(-189.417 -471.606)" fill="#fff"/>
    </g>
    <g id="Group_1058" data-name="Group 1058" transform="translate(688.145 609.56)">
      <path id="Path_1983" data-name="Path 1983" d="M526.84,494.584V471.7h5.93a8.17,8.17,0,0,1,3.84.849,6.2,6.2,0,0,1,2.508,2.377,7.027,7.027,0,0,1,.888,3.631v9.117a7.327,7.327,0,0,1-.888,3.657,6.259,6.259,0,0,1-2.508,2.4,8.17,8.17,0,0,1-3.84.849Zm2.821-2.508h3.108a4.409,4.409,0,0,0,3.24-1.163,4.333,4.333,0,0,0,1.175-3.226V478.57a4.291,4.291,0,0,0-1.175-3.2,4.431,4.431,0,0,0-3.24-1.162h-3.108Z" transform="translate(-526.84 -471.661)" fill="#fff"/>
      <path id="Path_1984" data-name="Path 1984" d="M552.24,494.584,558.2,471.7h3.788l5.93,22.884h-2.848l-1.5-6.087h-6.923l-1.5,6.087h-2.887Zm4.95-8.464h5.773l-1.75-7.054c-.34-1.332-.6-2.456-.784-3.357s-.3-1.489-.34-1.75c-.039.274-.156.862-.34,1.75s-.444,2.012-.784,3.318l-1.75,7.08Z" transform="translate(-519.063 -471.661)" fill="#fff"/>
      <path id="Path_1985" data-name="Path 1985" d="M585.03,494.593v-20.35h-6.27V471.67h15.361v2.573h-6.27v20.35Z" transform="translate(-510.943 -471.67)" fill="#fff"/>
      <path id="Path_1986" data-name="Path 1986" d="M605.03,494.584l5.956-22.884h3.788l5.93,22.884h-2.847l-1.5-6.087h-6.923l-1.5,6.087h-2.887Zm4.95-8.464h5.773L614,479.067c-.34-1.332-.6-2.456-.784-3.357s-.3-1.489-.34-1.75c-.039.274-.157.862-.34,1.75s-.444,2.012-.784,3.318l-1.75,7.08Z" transform="translate(-502.9 -471.661)" fill="#fff"/>
    </g>
    <g id="Group_1059" data-name="Group 1059" transform="translate(878.049 609.573)">
      <path id="Path_1987" data-name="Path 1987" d="M672.23,494.8V471.92H685.4v2.573H675.025v7.08H684.3v2.534h-9.274v8.124H685.4V494.8Z" transform="translate(-672.23 -471.606)" fill="#fff"/>
      <path id="Path_1988" data-name="Path 1988" d="M697.19,494.8l6.583-11.6L697.53,471.92H700.8l3.54,6.766c.183.353.379.731.575,1.149s.366.732.483.954c.1-.235.261-.549.457-.954s.392-.784.575-1.149l3.605-6.766h3.108l-6.243,11.1,6.583,11.782h-3.226l-3.919-7.275c-.183-.353-.379-.731-.574-1.149s-.353-.732-.457-.993c-.1.248-.261.575-.457.967s-.392.77-.575,1.123l-3.945,7.3H697.19Z" transform="translate(-664.588 -471.606)" fill="#fff"/>
      <path id="Path_1989" data-name="Path 1989" d="M724.84,494.8V471.92h7.367a7.685,7.685,0,0,1,3.7.836,5.988,5.988,0,0,1,2.43,2.338,7.085,7.085,0,0,1,.862,3.579,6.984,6.984,0,0,1-.862,3.553,5.854,5.854,0,0,1-2.43,2.351,7.836,7.836,0,0,1-3.7.836h-4.545v9.4H724.84Zm2.821-11.939h4.545a3.936,3.936,0,0,0,2.965-1.149,4.781,4.781,0,0,0,0-6.126,3.949,3.949,0,0,0-2.965-1.123h-4.545Z" transform="translate(-656.122 -471.606)" fill="#fff"/>
      <path id="Path_1990" data-name="Path 1990" d="M751.43,494.8V471.92H764.6v2.573H754.225v7.08H763.5v2.534h-9.274v8.124H764.6V494.8Z" transform="translate(-647.981 -471.606)" fill="#fff"/>
      <path id="Path_1991" data-name="Path 1991" d="M777.64,494.8V471.92h7.079a7.357,7.357,0,0,1,3.579.836,5.928,5.928,0,0,1,2.377,2.3,6.817,6.817,0,0,1,.849,3.448,6.665,6.665,0,0,1-1.2,3.984,6.108,6.108,0,0,1-3.279,2.286l4.794,10.031h-3.318l-4.389-9.718h-3.67V494.8Zm2.821-12.252h4.258a3.7,3.7,0,0,0,2.821-1.11,4.568,4.568,0,0,0,0-5.878,3.74,3.74,0,0,0-2.821-1.1h-4.258Z" transform="translate(-639.956 -471.606)" fill="#fff"/>
      <path id="Path_1992" data-name="Path 1992" d="M804.35,494.8v-2.573h4.676V474.493H804.35V471.92h12.225v2.573H811.9v17.738h4.676V494.8Z" transform="translate(-631.779 -471.606)" fill="#fff"/>
      <path id="Path_1993" data-name="Path 1993" d="M830.63,494.8V471.92H843.8v2.573H833.425v7.08H842.7v2.534h-9.274v8.124H843.8V494.8Z" transform="translate(-623.732 -471.606)" fill="#fff"/>
      <path id="Path_1994" data-name="Path 1994" d="M856.793,494.807V471.923h3.762l6.989,19.593c-.039-.523-.092-1.163-.144-1.933s-.091-1.567-.131-2.417-.052-1.646-.052-2.4V471.91h2.73v22.884h-3.762L859.222,475.2c.039.5.079,1.136.131,1.894s.078,1.567.1,2.417.052,1.659.052,2.43v12.853h-2.73Z" transform="translate(-615.726 -471.61)" fill="#fff"/>
      <path id="Path_1995" data-name="Path 1995" d="M889.919,495.191a7.749,7.749,0,0,1-3.592-.784,5.485,5.485,0,0,1-2.351-2.273,7.185,7.185,0,0,1-.836-3.527V478.263a6.993,6.993,0,0,1,.836-3.54,5.6,5.6,0,0,1,2.351-2.26,7.749,7.749,0,0,1,3.592-.784,7.5,7.5,0,0,1,3.579.8,5.647,5.647,0,0,1,2.325,2.273,7.092,7.092,0,0,1,.81,3.514h-2.821a4.109,4.109,0,0,0-1.019-2.991,3.789,3.789,0,0,0-2.874-1.045,3.936,3.936,0,0,0-2.9,1.032,3.98,3.98,0,0,0-1.045,2.978v10.371a4.065,4.065,0,0,0,1.045,2.991,3.943,3.943,0,0,0,2.9,1.045,3.86,3.86,0,0,0,2.874-1.045,4.131,4.131,0,0,0,1.019-2.991h2.821a7.292,7.292,0,0,1-.81,3.5,5.524,5.524,0,0,1-2.325,2.286,7.5,7.5,0,0,1-3.579.8Z" transform="translate(-607.655 -471.68)" fill="#fff"/>
      <path id="Path_1996" data-name="Path 1996" d="M909.83,494.8V471.92H923v2.573H912.625v7.08H921.9v2.534h-9.274v8.124H923V494.8Z" transform="translate(-599.483 -471.606)" fill="#fff"/>
    </g>
    <rect id="Rectangle_630" data-name="Rectangle 630" width="22.91" height="22.91" transform="translate(644.179 609.861)" fill="#a03f74"/>
    <rect id="Rectangle_631" data-name="Rectangle 631" width="22.91" height="22.91" transform="translate(830.897 609.848)" fill="#a03f74"/>
    <rect id="Rectangle_632" data-name="Rectangle 632" width="63.872" height="22.91" transform="translate(246.397 609.848)" fill="#a03f74"/>
    <rect id="Rectangle_633" data-name="Rectangle 633" width="302.653" height="22.91" transform="translate(1222.396 609.848)" fill="#a03f74"/>
    <path id="Path_1997" data-name="Path 1997" d="M418.333,431.693c-1.123.157-2.26.3-3.383.457l3.37-.47h.013Z" transform="translate(127.047 132.177)" fill="#1b2326"/>
    <path id="Path_1998" data-name="Path 1998" d="M1009.424,115.971c-5.46-18.313-101.738-2.652-158.648,8.32-52.887,10.2-114.551,24.36-181.258,41.536a192.623,192.623,0,0,0-90.4-77.038c1.045-17.307-.078-32.785-6.962-34.966-6.91-2.181-16.771,9.94-25.9,24.791a192.083,192.083,0,0,0-162.54,39.851L360.883,89.416a237.184,237.184,0,0,1,83.491-47.14l2.4,7.928.522-.157-2.4-7.942c53.7-17.019,112.919-14.329,166.328,12.16A219.573,219.573,0,0,1,699.247,133.6l25.836-17.738A248.742,248.742,0,0,0,625.292,25.91C564.463-4.276,496.987-7.2,435.884,12.391l-2.194-7.249-.522.157,2.194,7.262C368.642,34.113,309.6,82.52,275.264,151.747a279.049,279.049,0,0,0-21.682,59.993c-26.737,18.26-40.8,38.9-40.387,60.149.209,10.8,4.18,21.291,11.6,31.257-31.413,11.547-60.7,22.845-87.252,33.738C83.923,358.88-5.224,398.47.236,416.808c1.829,6.1,13.663,8.425,30.786,8.425,34.339,0,89.878-9.431,127.848-16.745,19.4-3.749,39.982-8.02,61.547-12.774v-.627c-21.617,4.781-42.229,9.052-61.651,12.8C62.279,426.5,4.716,429.674.837,416.625c-3.905-13.049,46.016-41.9,136.939-79.154,26.607-10.907,55.93-22.231,87.409-33.791,6.361,8.4,15.165,16.419,26.332,23.929.457,2.273.927,4.546,1.45,6.792h31.818a236.357,236.357,0,0,1-7.6-49.36q18.221-6.368,37.148-12.787a191.726,191.726,0,0,0,8.255,50.2l-37.8,11.938h1.789l36.168-11.416c1.189,3.853,2.508,7.667,3.932,11.416h18.352a175.722,175.722,0,0,1-6.034-16.536l8.19-2.586-.157-.522-8.19,2.586a174.75,174.75,0,0,1-7.589-50.784c22.427-7.5,45.494-15.008,69.044-22.492a186.548,186.548,0,0,0,3.226,29.154c-11.651,13.924-16.484,27.508-12.16,38.441,4.114,10.41,15.922,16.863,32.589,19.344.6,1.136,1.228,2.26,1.842,3.383h7.863c-.509-.836-1.006-1.672-1.5-2.521a143.627,143.627,0,0,0,19.227-.091c-.222.862-.444,1.75-.666,2.612h.562c.222-.875.444-1.763.666-2.652a208.537,208.537,0,0,0,24.647-3.357c.222.131.444.248.666.366q-9.855,2.841-19.632,5.643h2.207c6.021-1.711,12.1-3.487,18.156-5.238,3.422,1.92,6.883,3.67,10.358,5.238h1.345c-3.67-1.62-7.341-3.448-10.959-5.46q17.457-5.055,35.1-10.28l2.482,15.726h.914q3.35-9.189,6.635-18.7,26.019-7.778,51.476-15.674l16.889,9.574a46.581,46.581,0,0,1-6.021,12.369,47.069,47.069,0,0,1-12.578,12.435h.953a47.79,47.79,0,0,0,12.082-12.121,46.9,46.9,0,0,0,6.048-12.409l10.371,5.878a124.027,124.027,0,0,1-3.6,18.652h9.77q1.293-6.838,1.959-14.054l24.791,14.054h1.1l-25.849-14.642a170.432,170.432,0,0,0-.209-30.943q35.737-11.364,69.8-22.78v.222a174.076,174.076,0,0,1-13.793,68.143H685.4a191.177,191.177,0,0,0,12.461-68.143c0-1.985-.039-3.958-.091-5.93,30.355-10.306,59.431-20.559,86.874-30.643,7.315,9.77,11.364,20.141,11.573,30.943.509,26.737-22.14,52.534-64.29,73.786h1.2c41.719-21.251,64.146-47.035,63.624-73.786-.209-10.763-4.154-21.225-11.521-31.152,31.257-11.481,60.384-22.74,86.821-33.582,53.631-21.983,142.765-61.573,137.318-79.912ZM652.212,170.32c-25.314,6.622-51.28,13.663-77.717,21.069-3.318-4.611-6.779-9.026-10.384-13.153q1.646-7.053,3.135-13.872l5.9-10.737a607.392,607.392,0,0,1,74.713,10.358c1.5,2.077,2.939,4.18,4.349,6.322Zm-80.121,30.029c-4.31-.026-8.83.157-13.519.549.4-1.58.771-3.122,1.176-4.7,2.534-.718,5.081-1.437,7.6-2.155C568.97,196.091,570.55,198.181,572.091,200.349Zm-13.885,89.93a247.925,247.925,0,0,1-30.9,15.5q4.918-14.479,9.64-29.441c6.178-19.54,11.834-38.793,16.863-57.354,16.915,14.107,29.167,30.969,35.619,47.819a165.9,165.9,0,0,1-30.7,23.158L544.675,282l-.261.483,13.793,7.811ZM418.185,258.6a69.572,69.572,0,0,1-2.874-19.279q34.659-10.893,70.507-21.6c-.17.509-.353,1.019-.536,1.528-27.1,10.933-50.34,24.909-67.1,39.368Zm64.185-30.826q-4.722,13.95-9.274,28.37c-6.178,19.54-11.834,38.793-16.863,57.38-15.975-13.3-28.187-29.363-35.032-46.291C435.048,253.119,456.5,238.921,482.37,227.779Zm-74.2,13.14c.849-27.9,9.522-52.769,24.8-69.841l14.094,20.781a49.008,49.008,0,0,0-32.315,46.983c-2.207.692-4.389,1.385-6.583,2.077Zm17.594-81.466-1.411-2.077c1.228-.157,2.456-.313,3.7-.47C427.263,157.742,426.505,158.578,425.761,159.453Zm77.038-7.837c2.194-.039,4.4-.078,6.6-.091.418.131.836.274,1.241.418-4.911,11.873-9.835,24.452-14.694,37.566a103.962,103.962,0,0,0-21.526-2.377h-.157a75.082,75.082,0,0,0-26.672,4.545l-14.237-20.99a70.751,70.751,0,0,1,22.362-16.641c15.321-1.28,31.035-2.116,47.074-2.416Zm-45.585,1.737c1.045-.457,2.077-.9,3.135-1.306,15.125-5.76,31.361-5.773,47.323-1.058-1.62.026-3.252.039-4.872.078q-23.139.431-45.572,2.273Zm59.731.927L515.7,166.872l.536.052,1.215-12.435c13.924,5.865,27.39,15.269,39.42,27.6L547.588,199q-7.7,2.194-15.465,4.441a130.548,130.548,0,0,0-35.685-13.832c4.872-13.1,9.783-25.653,14.681-37.513,1.946.666,3.866,1.371,5.8,2.168ZM515.6,141.519c1.11-2.612,2.234-5.186,3.344-7.719l-.862,8.8c-.823-.379-1.659-.731-2.482-1.084Zm51.137,22.662-5.773,10.528a149.6,149.6,0,0,0-26.75-23.041c11.821.274,23.459.823,34.836,1.646-.731,3.553-1.5,7.184-2.312,10.867Zm2.847-10.828,2.965.235-4.9,8.921Q568.65,157.866,569.584,153.353ZM548.332,198.8l8.947-16.288q2.116,2.194,4.18,4.506-1.038,4.291-2.142,8.647-5.486,1.548-10.985,3.122Zm10.815-2.443c-.379,1.528-.771,3.043-1.162,4.585-3.749.313-7.615.745-11.573,1.319l1.489-2.717q5.623-1.607,11.233-3.2Zm2.181-21.225,5-9.078c-.849,3.84-1.737,7.746-2.652,11.69-.784-.888-1.554-1.75-2.338-2.612ZM531.4,203.654q-20.69,5.976-41.628,12.226c-1.032.3-2.051.614-3.069.914,3.161-9.091,6.348-18.012,9.561-26.672A130.221,130.221,0,0,1,531.4,203.654Zm-107.629,6.884a49.919,49.919,0,0,1,23.6-18.221L458.611,208.9l.457-.3L447.888,192.12a74.361,74.361,0,0,1,26.359-4.467h.157A102.072,102.072,0,0,1,495.733,190c-3.252,8.764-6.479,17.777-9.679,26.972-23.942,7.158-47.584,14.394-70.768,21.682A49.794,49.794,0,0,1,423.776,210.538Zm62.67,6.975c1.163-.353,2.325-.692,3.5-1.045q8.973-2.684,17.908-5.3-10.227,3.174-20.69,7.288c-.418.157-.81.34-1.215.5l.509-1.45Zm45.716-13.441c.313.183.64.34.953.522q-7.876,1.626-16.053,3.866Q524.625,206.247,532.162,204.072Zm.731-.209q7.151-2.077,14.276-4.1l-1.424,2.6c-3.853.575-7.811,1.267-11.821,2.077C533.586,204.242,533.233,204.059,532.893,203.863Zm23,5.159q-1.176,4.467-2.4,9.013c-3.226-2.665-6.6-5.238-10.162-7.68a.729.729,0,0,1-.1-.065c4.363-.6,8.595-1.032,12.67-1.267Zm36.312,66.393a69.991,69.991,0,0,1,2.443,17.934q-9.6,3.017-19.305,6.021l-9.509-5.395A208.8,208.8,0,0,0,592.206,275.4Zm.444-.379c2.952-2.482,5.708-4.99,8.268-7.484a164.024,164.024,0,0,1,2.9,22.91c-2.874.914-5.747,1.816-8.634,2.73a69.97,69.97,0,0,0-2.534-18.143Zm6.191-38.153a205.34,205.34,0,0,0-11.612-25.235c9.757,2.834,16.6,7.772,19.384,14.786,2.678,6.766,1.28,14.694-3.435,23.08Q601.219,243.2,598.842,236.883Zm-6.087,2.312a176.011,176.011,0,0,1,5.643,17.529,92.875,92.875,0,0,1-8.568,9.653c-6.544-16.928-18.887-33.856-35.881-47.976.862-3.161,1.685-6.3,2.521-9.418a110.823,110.823,0,0,1,21.826.745A175.926,175.926,0,0,1,592.755,239.195Zm-32.85-43.7c.666-2.665,1.358-5.355,1.985-7.981,1.711,1.933,3.4,3.932,5.029,6q-3.507.98-7.027,1.985Zm87.435-32.21a603.923,603.923,0,0,0-73.89-10.2l10.5-19.122-.483-.261L572.849,153.04c-1.045-.078-2.1-.157-3.161-.222,2.116-10.358,3.918-20.206,5.394-29.454.8-5,1.633-10.737,2.351-16.719A175.424,175.424,0,0,1,647.34,163.28ZM570.5,54.123a5.071,5.071,0,0,1,1.489.222c5.551,1.75,7.759,13.832,6.583,34.209a189.547,189.547,0,0,0-31.74-9.822c9.888-16,18.09-24.621,23.681-24.621Zm6.426,52.273q-.96,7.915-2.377,16.863c-1.476,9.274-3.292,19.135-5.408,29.493q-17.614-1.274-35.8-1.659a118.257,118.257,0,0,0-14.747-8.255l1.058-10.658c3.579-8.085,7.132-15.752,10.619-22.91q3.918-8.013,7.628-14.943A173.643,173.643,0,0,1,576.924,106.4Zm-39.577-12.16c-2.8,5.225-5.368,10.306-7.563,14.8-3.279,6.727-6.609,13.911-9.979,21.447L523.541,92.3q6.995.686,13.806,1.933Zm-143.509,38,3.553,4.532.431-.34-3.579-4.545A174.039,174.039,0,0,1,506.065,91.428c5.708,0,11.364.287,16.941.81L519.1,132.05c-1.345,3.017-2.678,6.1-4.023,9.235-20.1-8.555-40.909-10.1-59.927-2.847a71.939,71.939,0,0,0-26.528,17.8l-4.676.588-15.7-23.158-.444.3,15.543,22.936a598.019,598.019,0,0,0-62.056,11.338,176.064,176.064,0,0,1,32.537-36.024ZM302.5,165.253a244.228,244.228,0,0,1,57.981-75.484L383.3,118.818a192.579,192.579,0,0,0-45.807,55.774,396.91,396.91,0,0,0-40.309,14.133c-1.959.823-3.879,1.646-5.786,2.482a246.582,246.582,0,0,1,11.1-25.967ZM213.743,271.875c-.418-21.317,14.094-41.589,39.642-59.209a272.923,272.923,0,0,0-6.335,82.393q-10.991,3.958-21.656,7.863C218.027,293.114,213.952,282.7,213.743,271.875Zm37.579,54.82c-10.658-7.249-19.266-15.034-25.549-23.263q10.5-3.86,21.33-7.746A269.741,269.741,0,0,0,251.322,326.7Zm25.823-42.307a241.625,241.625,0,0,1,13.976-92.412A381.836,381.836,0,0,1,337.1,175.336a190.954,190.954,0,0,0-22.884,90.9c0,1.789.052,3.579.1,5.368q-18.926,6.407-37.161,12.787Zm54.115-18.5a176.193,176.193,0,0,1,2.247-27.7l56.257,8.555.078-.549-56.257-8.555a173.928,173.928,0,0,1,27.194-68.652,601.419,601.419,0,0,1,62.931-11.56l1.646,2.429C408.3,180,399.416,209.95,400.278,243.388q-35.325,11.227-69.031,22.492Zm83.491-26.411a70.664,70.664,0,0,0,2.965,19.488c-2.939,2.547-5.695,5.107-8.216,7.68a156.2,156.2,0,0,1-1.371-25.079c2.207-.692,4.4-1.4,6.609-2.09Zm-9.235,66.563c-2.194-5.564-1.633-11.938,1.267-18.7a205.212,205.212,0,0,0,6.518,20.154c1.371,3.605,2.834,7.132,4.363,10.593-5.917-2.9-10.11-6.923-12.147-12.043Zm20.925,15.23c-2.573-5.172-4.937-10.541-7.04-16.092a178.145,178.145,0,0,1-7.8-26.463,85.723,85.723,0,0,1,9.169-11.063c6.91,16.993,19.214,33.111,35.293,46.434-.862,3.2-1.711,6.387-2.547,9.535-10.306.4-19.5-.379-27.064-2.351Zm27.639,2.325c.8-3.03,1.62-6.061,2.443-9.13,3.252,2.665,6.622,5.238,10.162,7.667.17.1.327.222.5.327C462.647,323.038,458.272,323.417,454.079,323.6ZM468,322.359c-.34-.222-.666-.431-1.006-.666q-5.388-3.7-10.319-7.8c5.055-18.639,10.737-37.957,16.928-57.589q4.624-14.636,9.431-28.827c2.181-.927,4.376-1.829,6.622-2.717a236.144,236.144,0,0,1,51.594-14.2L528.4,233.97l.483.261,13.049-23.772c.157-.026.326-.026.5-.052.2.131.418.261.614.4q5.408,3.723,10.306,7.811c-4.715,17.4-9.979,35.41-15.713,53.7a32.15,32.15,0,1,0-2.26,7.145q-4.291,13.5-8.751,26.62c-1.371.562-2.743,1.123-4.128,1.685-3.109,1.228-6.2,2.377-9.274,3.474l-.549-3.54-.536.091.562,3.644a225.522,225.522,0,0,1-44.71,10.972Zm39.12-55.238c0,8.333-6.283,15.1-14.028,15.1s-14.028-6.766-14.028-15.1,6.283-15.1,14.028-15.1S507.123,258.788,507.123,267.121ZM523.5,315.162l-3.8,1.136c-1.228.366-2.456.731-3.7,1.1,2.56-.927,5.133-1.868,7.72-2.874C523.646,314.731,523.58,314.953,523.5,315.162Zm-46.056,13.049q3.233-.647,6.531-1.411l-5.956,1.724C477.825,328.42,477.629,328.315,477.446,328.211Zm39.368,5.773-2.443-15.478c1.842-.549,3.657-1.071,5.5-1.62,1.123-.34,2.247-.666,3.37-1.006q-3.194,9.189-6.426,18.117Zm7.315-19.018c.078-.235.17-.47.248-.705.209-.078.4-.157.6-.222a280.86,280.86,0,0,0,40.308-19.723l9.339,5.29q-24.961,7.739-50.5,15.374Zm68.274-5.93-16.327-9.248q9.307-2.88,18.548-5.786a54.086,54.086,0,0,1-2.221,15.047Zm10.763,6.1L592.873,309.3a53.719,53.719,0,0,0,2.286-15.478c2.913-.914,5.8-1.829,8.7-2.743a148,148,0,0,1-.692,24.06ZM611,288.163a191.41,191.41,0,0,0-4.48-26.5c13.14-14.76,18.809-29.271,14.224-40.831-4.7-11.886-19.41-18.626-39.956-20.167-1.907-3.017-3.905-5.917-5.93-8.751,26.437-7.406,52.4-14.433,77.7-21.069a173.983,173.983,0,0,1,23.9,56.178l-15.622,3.213.1.536,15.635-3.213a175.907,175.907,0,0,1,4.284,37.8c-22.675,7.6-46.016,15.217-69.854,22.793Zm60.776-118.627c38.336,9.953,69.946,23.55,91.719,39.668l-70.351,14.42a190.383,190.383,0,0,0-21.382-54.089ZM697.8,259.663a191.419,191.419,0,0,0-4.519-35.515l70.794-14.512a102.154,102.154,0,0,1,20.22,19.514c-27.325,10.031-56.283,20.246-86.508,30.512Zm174.087-64.368c-26.489,10.854-55.669,22.127-86.978,33.634a100.5,100.5,0,0,0-20-19.462l18.469-3.788-.1-.536-18.953,3.879c-14-10.436-32.341-19.984-54.663-28.279a392.153,392.153,0,0,0-38.31-11.938c-.483-.823-1.019-1.633-1.515-2.443,66.628-17.15,128.214-31.3,181.049-41.484,57.315-11.05,100.876-16.654,127.639-16.654,18.286,0,28.71,2.625,30.29,7.915,3.905,13.049-46.03,41.9-136.939,79.154Z" transform="translate(0 0)" fill="#fff"/>
    <g id="Group_1060" data-name="Group 1060" transform="translate(246.397 355.444)">
      <path id="Path_1999" data-name="Path 1999" d="M206.482,275.89H188.64V493.106h61.181V422.573h87.03V370.9h-87.03V327.732h89.747V275.89H206.482Z" transform="translate(-188.64 -270.966)" fill="#fff"/>
      <path id="Path_2000" data-name="Path 2000" d="M511.016,470.977q-29.369,4.349-59.17,8.412l3.213,13.728H517.1ZM457.437,275.9h-91.6L305.49,493.116h62.043l11.22-47.088h65.269l7.811,33.347q29.82-4.075,59.143-8.568ZM389.921,399.124l19.762-82.942h3.905l19.449,82.942Z" transform="translate(-152.864 -270.963)" fill="#fff"/>
      <path id="Path_2001" data-name="Path 2001" d="M486.99,427.1q70.69-10.913,138.6-23.446l-3.435,41.171a87.577,87.577,0,0,1-15.217,7.132,112.867,112.867,0,0,1-19.279,5.107,132.2,132.2,0,0,1-22.949,1.868q-48.609,0-72.153-25.157A78.04,78.04,0,0,1,486.99,427.1Z" transform="translate(-97.293 -231.849)" fill="#fff"/>
      <path id="Path_2002" data-name="Path 2002" d="M630.78,432.231l-.81,9.679q-67.712,13.6-139,25.131-17.751-24.314-17.738-64.891V367.81q0-45.886,23.707-70.782t71.3-24.909a139.637,139.637,0,0,1,22.518,1.7,112.482,112.482,0,0,1,18.783,4.676,85.444,85.444,0,0,1,15.125,6.883l4.415,51.842a147.526,147.526,0,0,0-21.33-8.242A90.319,90.319,0,0,0,581.5,325.49q-23.629,0-34.509,11.9t-10.88,33.138V399.6q0,21.062,11.05,33.059,11.05,11.971,36.716,11.978a83.6,83.6,0,0,0,25.666-3.657,137.418,137.418,0,0,0,21.238-8.751Z" transform="translate(-101.506 -272.12)" fill="#fff"/>
      <path id="Path_2003" data-name="Path 2003" d="M651.11,395.482q31.231-6.27,61.69-12.892v77.861H651.11Z" transform="translate(-47.044 -238.297)" fill="#fff"/>
      <path id="Path_2004" data-name="Path 2004" d="M784.606,275.9v51.15H726.468v83.2q-30.349,7.426-61.69,14.446V327.05H606.47V275.9Z" transform="translate(-60.712 -270.963)" fill="#fff"/>
      <path id="Path_2005" data-name="Path 2005" d="M924.27,297.107Q899.622,272.126,850.5,272.12t-73.76,24.987q-24.647,24.98-24.647,70.7v25.536q32.033-8.66,62.709-17.738V364.584q0-20.4,8.764-31.27,8.739-10.874,26.933-10.88t26.946,10.88q6.211,7.719,8.007,20.259,30.427-9.992,59.144-20.376Q938.6,311.645,924.27,297.107Zm23.485,51.933q-30.114,8.9-61.56,17.529v42.712q0,19.044-8.751,29.493T850.5,449.224q-18.181,0-26.933-10.449T814.8,409.281V385.339q-30.859,7.778-62.709,15.256v5.63q0,45.553,24.478,69.606T850.5,499.877q49.451,0,73.943-24.047,24.471-24.06,24.464-69.606V367.81a145.709,145.709,0,0,0-1.149-18.77Z" transform="translate(-16.127 -272.12)" fill="#fff"/>
      <path id="Path_2006" data-name="Path 2006" d="M1024.249,275.9h-99.1v43.678c37-14.159,71.526-28.736,103.292-43.626C1027.071,275.913,1025.673,275.9,1024.249,275.9Zm78.684,170.3q-2.194-18.515-7.563-30.852a40.433,40.433,0,0,0-16.484-19.031q-8.366-5.035-21.839-7.066v-1.685q23.276-.862,35.266-12.67t11.978-34.418v-3.905q0-29.742-19.2-45.207a50.469,50.469,0,0,0-7.145-4.794c-46.983,17.908-98.094,35.371-152.8,52.169V493.116h60.006V425.352l28.723.118q9.679,0,15.635,2.717a18.547,18.547,0,0,1,9.013,8.83q3.056,6.132,3.905,16.5l3.4,39.6h62.892Zm-59.653-93.143q0,13.088-6.635,19.292t-21.408,6.2l-30.421.1V324.672h30.421q15.125,0,21.578,6.2t6.466,19.292Z" transform="translate(36.859 -270.963)" fill="#fff"/>
      <path id="Path_2007" data-name="Path 2007" d="M1269.749,275.89h-64.08l-23.276,59.5-12.748,35.345h-2.9L1154,335.386l-23.446-59.5H1066.47l71.552,157.564v59.653h60.515V433.427Z" transform="translate(80.127 -270.966)" fill="#fff"/>
    </g>
    <g id="Group_1061" data-name="Group 1061" transform="translate(784.932 158.591)">
      <path id="Path_2008" data-name="Path 2008" d="M610.175,209.6l3.736-80.761h2.952l54.01,147.088h9.77l54.023-147.088h3.069l3.749,80.63,3.866,85.842h5.225L742.411,124.42H731.048L676.894,271.508h-2.273L620.467,124.42H609.234L600.94,295.307H606.3Z" transform="translate(-600.94 -124.407)" fill="#fff"/>
      <rect id="Rectangle_634" data-name="Rectangle 634" width="5.212" height="170.887" transform="translate(195.756 0.013)" fill="#fff"/>
      <path id="Path_2009" data-name="Path 2009" d="M798.4,211.607l-.261-82.9h1.868l92.673,166.6H902.7V124.42h-5.212v89.185l.274,77.286h-1.881L803.222,124.42H793.19V295.307H798.4Z" transform="translate(-542.078 -124.407)" fill="#fff"/>
      <path id="Path_2010" data-name="Path 2010" d="M1009.046,278.525q16.046-16.771,16.04-47.806V189q0-31.152-16.04-47.871T962.781,124.41H914.91v170.9h47.872Q992.993,295.31,1009.046,278.525Zm-88.924,12.1V129.1h42.516q28.076,0,42.659,15.439t14.577,44.593v41.458q0,29.017-14.577,44.527t-42.659,15.5H920.122Z" transform="translate(-504.811 -124.41)" fill="#fff"/>
    </g>
    <circle id="Ellipse_121" data-name="Ellipse 121" cx="11.377" cy="11.377" r="11.377" transform="translate(971.924 131.044)" fill="#a03f74"/>
  </g>
</svg>
