<svg xmlns="http://www.w3.org/2000/svg" width="550.652" height="550.659" viewBox="0 0 550.652 550.659">
  <path id="noun-user-5280760" d="M350,4.668A275.29,275.29,0,0,0,76.614,247.094,279.92,279.92,0,0,0,74.673,280,275.056,275.056,0,0,0,582.516,426.789a13.59,13.59,0,0,0,3.266-5.395A274.733,274.733,0,0,0,350.008,4.665Zm0,522.67v0A245.754,245.754,0,0,1,142.239,413.768a64.126,64.126,0,0,1,63.094-54.8h68.844a106.929,106.929,0,0,0,74.984,33.152,106.929,106.929,0,0,0,74.984-33.152h70.523a64.119,64.119,0,0,1,63.094,54.75A247.154,247.154,0,0,1,350,527.334Zm225.87-147.05v0a92.259,92.259,0,0,0-81.2-49.316H446.545a211.232,211.232,0,0,0,30.484-111.83,127.945,127.945,0,0,0-178.38-117.606,14,14,0,1,0,11.07,25.722A99.943,99.943,0,0,1,449.028,219.04c0,78.586-45.734,144.98-99.867,144.98s-99.867-66.4-99.867-144.98A100.47,100.47,0,0,1,251.4,198.5a14,14,0,1,0-27.4-5.73,128.543,128.543,0,0,0-2.707,26.246,211.25,211.25,0,0,0,30.484,111.95H205.333a92.286,92.286,0,0,0-81.348,49.523,246.964,246.964,0,0,1-21.316-100.48,252.186,252.186,0,0,1,1.754-29.586A247.315,247.315,0,1,1,575.868,380.3Z" transform="translate(-74.672 -4.664)"/>
</svg>
