<svg xmlns="http://www.w3.org/2000/svg" width="1874" height="450.848" viewBox="0 0 1874 450.848">
  <g id="Group_1075" data-name="Group 1075" transform="translate(-518.63 -610.365)">
    <g id="Group_1066" data-name="Group 1066" transform="matrix(0.899, -0.438, 0.438, 0.899, -290.222, 409.919)">
      <circle id="Ellipse_122" data-name="Ellipse 122" cx="21.31" cy="21.31" r="21.31" transform="translate(861.35 665.4)" fill="#a03f74" stroke="#eee" stroke-miterlimit="10" stroke-width="2"/>
      <line id="Line_26" data-name="Line 26" y1="47.47" x2="47.47" transform="translate(607.7 954.14)" fill="none" stroke="#fff" stroke-miterlimit="10" stroke-width="2"/>
      <line id="Line_27" data-name="Line 27" y1="69.23" x2="69.23" transform="translate(709.19 932.38)" fill="none" stroke="#fff" stroke-miterlimit="10" stroke-width="2"/>
      <line id="Line_28" data-name="Line 28" x2="9.85" y2="232.43" transform="translate(683.64 716.39)" fill="none" stroke="#fff" stroke-miterlimit="10" stroke-width="2"/>
      <path id="Path_2011" data-name="Path 2011" d="M816.03,1001.61h-37.4V837.59l-69.44,164.02H676.51L607.7,838.21v163.4H570.94V778.83h50.27l72.27,169.99,71.33-169.99h51.22Z" fill="rgba(0,0,0,0)" stroke="#fff" stroke-miterlimit="10" stroke-width="2"/>
      <g id="Group_1065" data-name="Group 1065">
        <path id="Path_2012" data-name="Path 2012" d="M898.28,726.42a18.823,18.823,0,0,0-12.86-4.92,14.376,14.376,0,0,0-1.44.08,14.164,14.164,0,0,0-1.44.18c-.03-.03-.05,0-.1.03a13.931,13.931,0,0,0-1.41.26,24.558,24.558,0,0,0-4.63,1.49,39.028,39.028,0,0,0-5.11,2.59c-1.02.63-2.04,1.31-3.09,2.04-1.31.92-2.62,1.94-3.98,3.04q-.585.465-1.2,1.02c-.55.47-1.13.94-1.68,1.44-.63.58-1.26,1.18-1.91,1.78-.65.63-1.31,1.28-1.96,1.94l-41.43,41.42v222.78l41.24-41.24q24.75-24.75,40.93-70.47t16.18-97.57c0-34.57-5.37-56.74-16.1-65.91Zm-15,153.73q-10.485,30.12-26.66,46.3l-20.79,20.79V793.58l20.95-20.95c.65-.65,1.31-1.28,1.96-1.89a45.345,45.345,0,0,1,5.11-4.14c.29-.21.58-.39.86-.6a23.689,23.689,0,0,1,5.6-2.75,5.53,5.53,0,0,1,.79-.24,6.3,6.3,0,0,1,1.23-.29,6.991,6.991,0,0,1,.97-.16,11.891,11.891,0,0,1,3.82.1,8.932,8.932,0,0,1,1.1.29,10.627,10.627,0,0,1,3.14,1.49,13.923,13.923,0,0,1,1.99,1.55q10.41,9.585,10.4,46.95c0,24.93-3.51,47.13-10.47,67.19Z" fill="rgba(0,0,0,0)" stroke="#fff" stroke-miterlimit="10" stroke-width="2"/>
        <path id="Path_2013" data-name="Path 2013" d="M893.75,812.97q0,37.08-10.47,67.19-10.485,30.12-26.66,46.3l-20.79,20.79V793.59l20.95-20.95q16.185-16.185,26.58-6.62,10.41,9.585,10.4,46.95Z" fill="none" stroke="#fff" stroke-miterlimit="10" stroke-width="2"/>
      </g>
      <path id="Path_2014" data-name="Path 2014" d="M885.43,721.5a14.376,14.376,0,0,0-1.44.08c-.47.03-.94.1-1.44.18-.03-.03-.05,0-.1.03a8.722,8.722,0,0,0-1.41.26,24.558,24.558,0,0,0-4.63,1.49,39.028,39.028,0,0,0-5.11,2.59c-1.02.63-2.04,1.31-3.09,2.04-1.31.92-2.62,1.94-3.98,3.04q-.585.465-1.2,1.02c-.55.45-1.1.94-1.68,1.44-.63.58-1.26,1.18-1.91,1.78-.65.63-1.31,1.28-1.96,1.94l-41.43,41.42H764.83l-81.17-62.43-62.43,62.43H570.95l98.35-98.35h33.13l93.19,69.5.39.29,19.48-19.48q11.355-9.15,20.66-9.27h49.28Z" fill="rgba(0,0,0,0)" stroke="#fff" stroke-miterlimit="10" stroke-width="2"/>
    </g>
    <g id="Group_1073" data-name="Group 1073">
      <g id="Group_1067" data-name="Group 1067">
        <path id="Path_2015" data-name="Path 2015" d="M1138.3,736.63v30.74h-90.94v57.66h81.59v30.18h-81.59v81.02h-32.73V736.62h123.66m2-2H1012.63V938.23h36.73V857.21h81.59V823.03h-81.59V769.37h90.94V734.63h0Z" fill="#fff"/>
        <path id="Path_2016" data-name="Path 2016" d="M1279.13,736.63l77.69,199.61h-35.75l-18.48-49.14-.49-1.3h-85.88l-.48,1.3-18.23,49.13h-34.62l77.71-199.61h38.52m-51.48,118.99h63.01l-1-2.7-28.63-76.88-1.87-5.03-1.87,5.03-28.62,76.88-1,2.7m52.85-120.99h-41.26l-79.26,203.61h38.93l18.71-50.43h83.1l18.97,50.43h40.06l-79.24-203.61h0Zm-49.97,118.99,28.62-76.88,28.63,76.88Z" fill="#fff"/>
        <path id="Path_2017" data-name="Path 2017" d="M1482.13,732.39c23.93,0,43.87,6.15,59.25,18.29a85.317,85.317,0,0,1,30.37,45.82l-30.8,10.36a58.764,58.764,0,0,0-19.6-31.39c-9.91-8.18-23.11-12.33-39.23-12.33-18.03,0-33.86,6.49-47.04,19.3s-19.88,31.04-19.88,54.14,6.64,40.5,19.74,53.3a65.673,65.673,0,0,0,47.47,19.3c15.75,0,28.95-4.34,39.21-12.9a65.347,65.347,0,0,0,20.98-31.13l29.97,9.81c-4.91,18.23-15.22,33.84-30.65,46.41-15.57,12.68-35.59,19.12-59.52,19.12-27.86,0-51.88-9.56-71.37-28.43-19.52-18.87-29.42-44.27-29.42-75.48s10.04-56.42,29.83-75.47c19.81-19.06,43.59-28.72,70.67-28.72m0-2c-27.62,0-51.87,9.85-72.06,29.28s-30.44,45.31-30.44,76.91,10.1,57.66,30.03,76.92c19.88,19.23,44.36,28.99,72.76,28.99,24.4,0,44.84-6.58,60.78-19.56s26.52-29.14,31.48-48.03l.33-1.24-33.7-11.04-.41,1.34a63.511,63.511,0,0,1-20.54,30.8c-9.9,8.25-22.66,12.44-37.93,12.44a63.765,63.765,0,0,1-46.07-18.73c-12.7-12.42-19.14-29.87-19.14-51.87s6.48-40.28,19.27-52.71,28.15-18.74,45.65-18.74c15.64,0,28.41,4,37.96,11.88a56.947,56.947,0,0,1,19.1,31l.35,1.44,34.63-11.65-.32-1.23a87.3,87.3,0,0,0-31.22-47.46c-15.75-12.42-36.1-18.71-60.49-18.71h0Z" fill="#fff"/>
        <path id="Path_2018" data-name="Path 2018" d="M1770.09,736.63v30.74h-65.45V936.23h-32.73V767.37h-65.17V736.63h163.35m2-2H1604.74v34.74h65.17V938.23h36.73V769.37h65.45V734.63Z" fill="#fff"/>
        <path id="Path_2019" data-name="Path 2019" d="M1896.35,732.39a104.709,104.709,0,0,1,49.57,12.11c15.11,8.03,27.71,20.2,37.44,36.16,9.71,15.99,14.63,34.7,14.63,55.64s-4.92,39.71-14.63,55.77c-9.73,16.08-22.33,28.3-37.43,36.32a107.626,107.626,0,0,1-99.14.01c-15.11-8.03-27.66-20.25-37.3-36.32l-.11-.18c-9.55-16.04-14.39-34.74-14.39-55.59s4.88-39.64,14.49-55.63c9.63-15.96,22.18-28.13,37.3-36.16a104.6,104.6,0,0,1,49.57-12.12m0,177.08a67.148,67.148,0,0,0,47.89-19.32c13.39-12.8,20.18-30.92,20.18-53.85s-6.79-41.05-20.17-53.87a68.9,68.9,0,0,0-95.65,0c-13.28,12.81-20.02,30.94-20.02,53.87s6.73,41.06,20.02,53.85a66.7,66.7,0,0,0,47.76,19.32m0-179.08a106.552,106.552,0,0,0-50.51,12.35c-15.45,8.2-28.25,20.62-38.07,36.9-9.81,16.31-14.78,35.38-14.78,56.67s4.97,40.41,14.78,56.8h0c9.82,16.39,22.63,28.85,38.07,37.06a109.622,109.622,0,0,0,101.02,0c15.43-8.2,28.28-20.66,38.21-37.05,9.9-16.38,14.92-35.49,14.92-56.81s-5.02-40.37-14.92-56.67c-9.92-16.28-22.77-28.69-38.21-36.89a106.668,106.668,0,0,0-50.51-12.35h0Zm0,177.08a64.731,64.731,0,0,1-46.37-18.76c-12.88-12.4-19.4-30.04-19.4-52.41s6.53-40.01,19.41-52.43a66.912,66.912,0,0,1,92.88,0c12.98,12.43,19.56,30.07,19.56,52.43s-6.58,40-19.56,52.41a65.239,65.239,0,0,1-46.51,18.76h0Z" fill="#fff"/>
        <path id="Path_2020" data-name="Path 2020" d="M2121.55,736.63c18.61,0,33.81,5.8,45.17,17.24,11.34,11.46,17.09,25.94,17.09,43.04,0,14.15-4.05,26.41-12.03,36.44-7.68,9.63-18.16,16.27-31.14,19.74l-2.46.66,1.22,2.24,43.97,80.25h-37.06l-41.65-78.27-.56-1.06h-25.96v79.33h-33V736.63h76.42m-43.41,91.52h37.18c10.5,0,19.08-2.86,25.5-8.51,6.53-5.74,9.7-13.18,9.7-22.73s-3.26-17.32-9.7-22.99c-6.42-5.65-15-8.51-25.5-8.51h-37.18v62.74m43.41-93.52h-78.42V938.24h37V858.91h22.76l42.22,79.33h41.64l-45.59-83.21c13.41-3.58,24.23-10.45,32.18-20.43,8.27-10.4,12.47-23.08,12.47-37.69,0-17.65-5.94-32.6-17.67-44.44-11.75-11.83-27.43-17.83-46.59-17.83h0Zm-41.41,91.52V767.41h35.18c10,0,18.14,2.7,24.18,8.01,5.99,5.27,9.02,12.49,9.02,21.48s-2.95,15.89-9.02,21.23c-6.04,5.32-14.18,8.01-24.18,8.01h-35.18Z" fill="#fff"/>
        <path id="Path_2021" data-name="Path 2021" d="M2389.06,736.63l-70.03,114.59-.29.48v84.54h-32.73V851.7l-.29-.48-69.49-114.59h38.75l46.79,81.78,1.73,3.02,1.74-3.02,47.08-81.78h36.74m3.57-2h-41.47l-47.65,82.78-47.37-82.78h-43.47l71.34,117.63v85.98h36.73V852.26l71.89-117.63Z" fill="#fff"/>
      </g>
      <g id="Group_1068" data-name="Group 1068">
        <path id="Path_2022" data-name="Path 2022" d="M1012.64,701.32v-25.2h4.07l2.62,8.15q.375,1.11.69,2.19c.21.72.36,1.28.45,1.67.11-.39.26-.95.45-1.67s.39-1.47.62-2.23l2.49-8.11h4.07v25.2h-3.04v-9.15c0-1.01.04-2.16.1-3.45s.16-2.61.28-3.95.24-2.64.36-3.87.23-2.31.33-3.23l-4.07,12.6h-3.28l-4.11-12.6c.12.9.23,1.94.35,3.13s.22,2.44.31,3.76.17,2.64.24,3.95.1,2.53.1,3.66v9.15h-3.04Z" fill="#eee"/>
        <path id="Path_2023" data-name="Path 2023" d="M1051.33,701.32v-2.83h5.14V678.95h-5.14v-2.83h13.47v2.83h-5.14v19.54h5.14v2.83Z" fill="#eee"/>
        <path id="Path_2024" data-name="Path 2024" d="M1088.72,701.32v-25.2h4.14l7.7,21.58c-.05-.58-.1-1.28-.15-2.12s-.1-1.73-.14-2.66-.05-1.81-.05-2.64V676.12h3v25.2h-4.14l-7.66-21.58c.04.55.09,1.25.14,2.09s.09,1.73.12,2.66.05,1.82.05,2.68v14.16h-3Z" fill="#eee"/>
        <path id="Path_2025" data-name="Path 2025" d="M1126.7,701.32v-25.2h6.53a9.04,9.04,0,0,1,4.23.93,6.711,6.711,0,0,1,2.76,2.62,7.79,7.79,0,0,1,.98,4.01v10.05a7.981,7.981,0,0,1-.98,4.02,6.691,6.691,0,0,1-2.76,2.64,9.012,9.012,0,0,1-4.23.93Zm3.11-2.76h3.42a4.86,4.86,0,0,0,3.57-1.28,4.79,4.79,0,0,0,1.3-3.56V683.67a4.687,4.687,0,0,0-1.3-3.52,4.86,4.86,0,0,0-3.57-1.28h-3.42v19.68Z" fill="#eee"/>
      </g>
      <g id="Group_1072" data-name="Group 1072">
        <rect id="Rectangle_638" data-name="Rectangle 638" width="71.13" height="25.91" transform="translate(1012.64 964.88)" fill="#a03f74"/>
        <path id="Path_2026" data-name="Path 2026" d="M1269,990.79h-71.13l-6.6-25.91h84.26Z" fill="#a03f74"/>
        <path id="Path_2027" data-name="Path 2027" d="M1625,990.79h-87.14l6.59-7.93V971.27l-6.59-6.39H1625l-6.56,7.31,6.56,5.54,7.09,5.94Z" fill="#a03f74"/>
        <path id="Path_2028" data-name="Path 2028" d="M1964.09,990.79h-79.98l7.71-7.24-7.71-5.84-5.57-5.76,5.57-7.07h79.98Z" fill="#a03f74"/>
        <g id="Group_1069" data-name="Group 1069">
          <path id="Path_2029" data-name="Path 2029" d="M1625.11,990.89a10.623,10.623,0,0,1-4.46-.86,6.566,6.566,0,0,1-2.88-2.46,6.9,6.9,0,0,1-1.02-3.81h3.75a3.338,3.338,0,0,0,1.23,2.75,5.277,5.277,0,0,0,3.4,1,4.79,4.79,0,0,0,3.19-.98,3.36,3.36,0,0,0,1.16-2.7,3.878,3.878,0,0,0-3.05-3.93l-3.23-.95a8.2,8.2,0,0,1-4.33-2.75,7.306,7.306,0,0,1-1.53-4.65,7.025,7.025,0,0,1,.95-3.68,6.45,6.45,0,0,1,2.7-2.46,9.221,9.221,0,0,1,4.14-.88,8.14,8.14,0,0,1,5.63,1.89,6.556,6.556,0,0,1,2.16,5.09h-3.79a3.4,3.4,0,0,0-1.07-2.65,5.185,5.185,0,0,0-5.91-.07,3.119,3.119,0,0,0-1.05,2.51,4,4,0,0,0,.79,2.49,4.161,4.161,0,0,0,2.26,1.47l3.26.98a7.876,7.876,0,0,1,4.32,2.74,7.473,7.473,0,0,1,1.51,4.7,6.957,6.957,0,0,1-1.02,3.77,6.846,6.846,0,0,1-2.84,2.53,9.57,9.57,0,0,1-4.28.89Z" fill="#eee"/>
          <path id="Path_2030" data-name="Path 2030" d="M1657.47,990.89a8.944,8.944,0,0,1-4.12-.89,6.2,6.2,0,0,1-2.67-2.6,8.156,8.156,0,0,1-.93-3.98V972.05a8.155,8.155,0,0,1,.93-4,6.274,6.274,0,0,1,2.67-2.58,9.88,9.88,0,0,1,8.24,0,6.274,6.274,0,0,1,2.67,2.58,8.09,8.09,0,0,1,.93,3.97v11.41a8.156,8.156,0,0,1-.93,3.98,6.206,6.206,0,0,1-2.67,2.6,8.849,8.849,0,0,1-4.12.89Zm0-3.37a3.83,3.83,0,0,0,2.93-1.07,4.254,4.254,0,0,0,1-3.04V972.04a4.247,4.247,0,0,0-1-3.05,3.859,3.859,0,0,0-2.93-1.05,3.811,3.811,0,0,0-2.91,1.05,4.21,4.21,0,0,0-1.02,3.05v11.37a4.249,4.249,0,0,0,1.02,3.04A3.843,3.843,0,0,0,1657.47,987.52Z" fill="#eee"/>
          <path id="Path_2031" data-name="Path 2031" d="M1683.23,990.54V964.92h3.79v22.15h11.2v3.47Z" fill="#eee"/>
          <path id="Path_2032" data-name="Path 2032" d="M1722.39,990.89a7.649,7.649,0,0,1-5.69-2.02,7.485,7.485,0,0,1-2-5.49V964.92h3.79v18.46a4.484,4.484,0,0,0,.97,3.05,4.367,4.367,0,0,0,5.84,0,4.455,4.455,0,0,0,.98-3.05V964.92h3.79v18.46a7.453,7.453,0,0,1-2,5.49,7.634,7.634,0,0,1-5.69,2.02Z" fill="#eee"/>
          <path id="Path_2033" data-name="Path 2033" d="M1752.96,990.54V968.39h-6.84v-3.51h17.48v3.51h-6.84v22.15h-3.79Z" fill="#eee"/>
          <path id="Path_2034" data-name="Path 2034" d="M1780.23,990.54v-3.37h5.16V968.29h-5.16v-3.37h14.18v3.37h-5.16v18.88h5.16v3.37Z" fill="#eee"/>
          <path id="Path_2035" data-name="Path 2035" d="M1819.79,990.89a8.944,8.944,0,0,1-4.12-.89,6.2,6.2,0,0,1-2.67-2.6,8.156,8.156,0,0,1-.93-3.98V972.05a8.155,8.155,0,0,1,.93-4,6.274,6.274,0,0,1,2.67-2.58,9.88,9.88,0,0,1,8.24,0,6.274,6.274,0,0,1,2.67,2.58,8.09,8.09,0,0,1,.93,3.97v11.41a8.156,8.156,0,0,1-.93,3.98,6.206,6.206,0,0,1-2.67,2.6,8.849,8.849,0,0,1-4.12.89Zm0-3.37a3.83,3.83,0,0,0,2.93-1.07,4.254,4.254,0,0,0,1-3.04V972.04a4.247,4.247,0,0,0-1-3.05,3.859,3.859,0,0,0-2.93-1.05,3.811,3.811,0,0,0-2.91,1.05,4.21,4.21,0,0,0-1.02,3.05v11.37a4.249,4.249,0,0,0,1.02,3.04A3.843,3.843,0,0,0,1819.79,987.52Z" fill="#eee"/>
          <path id="Path_2036" data-name="Path 2036" d="M1844.56,990.54V964.92h4.77l7.48,21.3c-.05-.68-.11-1.49-.18-2.42s-.12-1.91-.16-2.91-.05-1.92-.05-2.74V964.92h3.51v25.62h-4.77l-7.44-21.3c.05.61.1,1.37.16,2.28s.11,1.86.14,2.84.05,1.9.05,2.74v13.44h-3.51Z" fill="#eee"/>
          <path id="Path_2037" data-name="Path 2037" d="M1884.82,990.89a10.623,10.623,0,0,1-4.46-.86,6.566,6.566,0,0,1-2.88-2.46,6.9,6.9,0,0,1-1.02-3.81h3.75a3.338,3.338,0,0,0,1.23,2.75,5.277,5.277,0,0,0,3.4,1,4.79,4.79,0,0,0,3.19-.98,3.36,3.36,0,0,0,1.16-2.7,3.878,3.878,0,0,0-3.05-3.93l-3.23-.95a8.2,8.2,0,0,1-4.33-2.75,7.306,7.306,0,0,1-1.53-4.65,7.025,7.025,0,0,1,.95-3.68,6.45,6.45,0,0,1,2.7-2.46,9.221,9.221,0,0,1,4.14-.88,8.14,8.14,0,0,1,5.63,1.89,6.556,6.556,0,0,1,2.16,5.09h-3.79a3.4,3.4,0,0,0-1.07-2.65,5.185,5.185,0,0,0-5.91-.07,3.119,3.119,0,0,0-1.05,2.51,4,4,0,0,0,.79,2.49,4.161,4.161,0,0,0,2.26,1.47l3.26.98a7.876,7.876,0,0,1,4.32,2.74,7.473,7.473,0,0,1,1.51,4.7,6.957,6.957,0,0,1-1.02,3.77,6.846,6.846,0,0,1-2.84,2.53,9.57,9.57,0,0,1-4.28.89Z" fill="#eee"/>
        </g>
        <g id="Group_1070" data-name="Group 1070">
          <path id="Path_2038" data-name="Path 2038" d="M1269,990.52l6.53-25.62h4.98l6.53,25.62h-3.83l-1.54-6.49h-7.26l-1.54,6.49h-3.86Zm6.11-9.62h5.83l-1.75-7.4c-.3-1.31-.56-2.45-.75-3.42s-.33-1.63-.4-1.98q-.1.525-.39,1.98c-.19.97-.44,2.1-.77,3.39l-1.75,7.44Z" fill="#eee"/>
          <path id="Path_2039" data-name="Path 2039" d="M1310.49,990.87a7.649,7.649,0,0,1-5.69-2.02,7.485,7.485,0,0,1-2-5.49V964.9h3.79v18.46a4.484,4.484,0,0,0,.97,3.05,4.367,4.367,0,0,0,5.84,0,4.455,4.455,0,0,0,.98-3.05V964.9h3.79v18.46a7.453,7.453,0,0,1-2,5.49,7.634,7.634,0,0,1-5.69,2.02Z" fill="#eee"/>
          <path id="Path_2040" data-name="Path 2040" d="M1341.06,990.52V968.37h-6.84v-3.51h17.48v3.51h-6.84v22.15h-3.79Z" fill="#eee"/>
          <path id="Path_2041" data-name="Path 2041" d="M1375.42,990.87a8.944,8.944,0,0,1-4.12-.89,6.206,6.206,0,0,1-2.67-2.6,8.156,8.156,0,0,1-.93-3.98V972.03a8.155,8.155,0,0,1,.93-4,6.274,6.274,0,0,1,2.67-2.58,9.88,9.88,0,0,1,8.24,0,6.274,6.274,0,0,1,2.67,2.58,8.09,8.09,0,0,1,.93,3.97v11.41a8.156,8.156,0,0,1-.93,3.98,6.206,6.206,0,0,1-2.67,2.6,8.849,8.849,0,0,1-4.12.89Zm0-3.37a3.83,3.83,0,0,0,2.93-1.07,4.254,4.254,0,0,0,1-3.04V972.02a4.247,4.247,0,0,0-1-3.05,3.859,3.859,0,0,0-2.93-1.05,3.811,3.811,0,0,0-2.91,1.05,4.21,4.21,0,0,0-1.02,3.05v11.37a4.249,4.249,0,0,0,1.02,3.04A3.843,3.843,0,0,0,1375.42,987.5Z" fill="#eee"/>
          <path id="Path_2042" data-name="Path 2042" d="M1399.67,990.52V964.9h4.67l2.56,8.21c.26.77.48,1.52.67,2.23s.32,1.25.39,1.6c.09-.35.23-.88.4-1.6s.38-1.46.61-2.23l2.46-8.21h4.67v25.62h-3.58v-8.63c0-1.1.03-2.32.09-3.67s.15-2.7.26-4.07.23-2.68.35-3.93.22-2.35.32-3.28l-3.79,12.46h-3.65l-3.86-12.46c.12.91.23,1.97.35,3.18s.22,2.49.32,3.84.18,2.72.25,4.09.11,2.65.11,3.84v8.63h-3.58Z" fill="#eee"/>
          <path id="Path_2043" data-name="Path 2043" d="M1431.32,990.52l6.53-25.62h4.98l6.53,25.62h-3.83l-1.54-6.49h-7.26l-1.54,6.49h-3.86Zm6.11-9.62h5.83l-1.75-7.4c-.3-1.31-.56-2.45-.75-3.42s-.33-1.63-.4-1.98q-.1.525-.39,1.98c-.19.97-.44,2.1-.77,3.39l-1.75,7.44Z" fill="#eee"/>
          <path id="Path_2044" data-name="Path 2044" d="M1470.91,990.52V968.37h-6.84v-3.51h17.48v3.51h-6.84v22.15h-3.79Z" fill="#eee"/>
          <path id="Path_2045" data-name="Path 2045" d="M1498.04,990.52V964.9h15.06v3.37h-11.34v7.27h10.11v3.33h-10.11v8.28h11.34v3.37h-15.06Z" fill="#eee"/>
          <path id="Path_2046" data-name="Path 2046" d="M1530.12,990.52V964.9h7.16a9.472,9.472,0,0,1,4.39.96,7.051,7.051,0,0,1,2.9,2.72,8,8,0,0,1,1.04,4.14v9.93a8.106,8.106,0,0,1-1.04,4.14,7.08,7.08,0,0,1-2.9,2.76,9.443,9.443,0,0,1-4.39.96h-7.16Zm3.79-3.44h3.37a4.554,4.554,0,0,0,3.32-1.18,4.307,4.307,0,0,0,1.21-3.25v-9.93a4.245,4.245,0,0,0-1.21-3.21,4.58,4.58,0,0,0-3.32-1.18h-3.37v18.74Z" fill="#eee"/>
        </g>
        <g id="Group_1071" data-name="Group 1071">
          <path id="Path_2047" data-name="Path 2047" d="M1083.77,990.54V964.92h7.16a9.472,9.472,0,0,1,4.39.96,7.051,7.051,0,0,1,2.9,2.72,8,8,0,0,1,1.04,4.14v9.93a8.106,8.106,0,0,1-1.04,4.14,6.993,6.993,0,0,1-2.9,2.75,9.443,9.443,0,0,1-4.39.96h-7.16Zm3.79-3.44h3.37a4.554,4.554,0,0,0,3.32-1.18,4.307,4.307,0,0,0,1.21-3.25v-9.93a4.245,4.245,0,0,0-1.21-3.21,4.58,4.58,0,0,0-3.32-1.18h-3.37v18.74Z" fill="#eee"/>
          <path id="Path_2048" data-name="Path 2048" d="M1114.83,990.54l6.53-25.62h4.98l6.53,25.62h-3.83l-1.54-6.49h-7.26l-1.54,6.49h-3.86Zm6.11-9.62h5.83l-1.75-7.41c-.3-1.31-.56-2.45-.75-3.42s-.33-1.63-.4-1.98q-.1.525-.39,1.98c-.19.97-.44,2.1-.77,3.39l-1.75,7.44Z" fill="#eee"/>
          <path id="Path_2049" data-name="Path 2049" d="M1154.42,990.54V968.39h-6.84v-3.51h17.48v3.51h-6.84v22.15h-3.79Z" fill="#eee"/>
          <path id="Path_2050" data-name="Path 2050" d="M1179.76,990.54l6.53-25.62h4.98l6.53,25.62h-3.83l-1.54-6.49h-7.26l-1.54,6.49h-3.86Zm6.11-9.62h5.83l-1.75-7.41c-.3-1.31-.56-2.45-.75-3.42s-.33-1.63-.4-1.98q-.1.525-.39,1.98c-.19.97-.44,2.1-.77,3.39l-1.75,7.44Z" fill="#eee"/>
        </g>
      </g>
    </g>
  </g>
</svg>
