<svg id="noun-plus-5021627" xmlns="http://www.w3.org/2000/svg" width="20" height="20" viewBox="0 0 20 20">
  <path id="Path_454" data-name="Path 454" d="M172.671,91.231H165V83.564a.444.444,0,0,0-.444-.444h-2.889a.444.444,0,0,0-.444.444v7.667h-7.667a.444.444,0,0,0-.444.444v2.889a.444.444,0,0,0,.444.444h7.667v7.667a.444.444,0,0,0,.444.444h2.889a.444.444,0,0,0,.444-.444V95.009h7.667a.444.444,0,0,0,.444-.444V91.676A.444.444,0,0,0,172.671,91.231Z" transform="translate(-153.115 -83.12)" fill="#fe601c"/>
</svg>
