<svg xmlns="http://www.w3.org/2000/svg" width="19.743" height="25.913" viewBox="0 0 19.743 25.913">
  <path id="Icon_metro-flow-branch" data-name="Icon metro-flow-branch" d="M27.867,7.712A3.7,3.7,0,1,0,22.6,11.055c-.126,2.443-1.959,3.273-5.144,4.467a20.134,20.134,0,0,0-4.086,1.9V11.068a3.7,3.7,0,1,0-3.085,0v11.8a3.7,3.7,0,1,0,3.11.012c.126-2.442,1.96-3.273,5.144-4.467,3.131-1.175,7-2.639,7.157-7.336a3.7,3.7,0,0,0,2.173-3.364ZM11.825,5.576A2.136,2.136,0,1,1,9.691,7.712a2.135,2.135,0,0,1,2.135-2.136Zm0,22.782a2.136,2.136,0,1,1,2.135-2.136,2.136,2.136,0,0,1-2.135,2.136ZM24.165,9.848A2.136,2.136,0,1,1,26.3,7.712a2.136,2.136,0,0,1-2.135,2.136Z" transform="translate(-8.123 -4.01)" fill="#d1c0b9"/>
</svg>
